<?xml version="1.0" standalone="no"?>
<!DOCTYPE svg PUBLIC "-//W3C//DTD SVG 20010904//EN"
 "http://www.w3.org/TR/2001/REC-SVG-20010904/DTD/svg10.dtd">
<svg version="1.0" xmlns="http://www.w3.org/2000/svg"
 width="4292.000000pt" height="1487.000000pt" viewBox="0 0 4292.000000 1487.000000"
 preserveAspectRatio="xMidYMid meet">
<metadata>
Created by WebHR
</metadata>
<g transform="translate(0.000000,1487.000000) scale(0.100000,-0.100000)"
fill="#0c64ae" stroke="none">
<path fill="#373737" d="M7030 14863 c-929 -63 -1711 -244 -2499 -580 -1203 -513 -2252 -1336
-3043 -2388 -1015 -1350 -1537 -3017 -1477 -4712 26 -734 146 -1409 373 -2088
173 -516 368 -949 633 -1404 l55 -93 60 113 c75 143 192 350 255 452 l48 77
-51 104 c-721 1465 -890 3109 -483 4696 59 232 182 602 272 825 461 1139 1227
2132 2212 2872 930 697 2029 1144 3170 1288 341 43 463 50 870 50 407 0 529
-7 870 -50 1233 -156 2418 -667 3395 -1464 179 -146 357 -311 550 -507 334
-340 572 -636 832 -1034 933 -1425 1287 -3153 992 -4850 -72 -415 -210 -908
-356 -1275 -22 -55 -41 -109 -42 -121 -3 -24 -104 -254 -184 -416 l-57 -118
48 -77 c63 -102 180 -309 255 -452 l60 -113 49 83 c58 99 192 344 224 412 13
26 28 47 34 47 7 0 18 12 25 28 260 555 415 986 539 1491 162 657 229 1308
210 2029 -69 2503 -1445 4836 -3624 6140 -1007 602 -2142 953 -3340 1032 -134
9 -760 11 -875 3z"/>
<path fill="#373737" d="M29302 10427 l-302 -41 2 -2869 3 -2870 130 -44 c435 -146 922 -216
1505 -217 310 0 431 11 630 60 412 102 742 358 928 721 197 386 297 969 278
1613 -39 1294 -414 1939 -1216 2086 -115 22 -439 30 -580 15 -455 -48 -791
-222 -1001 -520 l-44 -63 -3 1086 c-2 859 -5 1086 -15 1085 -6 -1 -148 -20
-315 -42z m1665 -2078 c235 -26 442 -126 568 -274 210 -245 315 -725 315
-1432 -1 -637 -91 -1079 -275 -1338 -57 -80 -188 -204 -261 -247 -82 -48 -178
-85 -287 -111 -84 -20 -118 -22 -402 -21 -411 0 -669 31 -912 111 l-83 27 0
1218 0 1219 26 51 c43 86 133 227 205 323 73 98 225 251 302 304 199 136 513
203 804 170z"/>
<path d="M39730 10423 c-400 -17 -805 -69 -1202 -154 l-148 -32 0 -2873 0
-2874 325 0 325 0 0 1065 0 1065 723 0 722 0 613 -1089 c337 -599 618 -1096
625 -1104 11 -15 47 -8 347 60 184 41 338 78 342 82 4 3 -291 505 -655 1115
l-662 1110 111 37 c109 37 276 115 358 167 281 180 491 444 591 745 71 214 98
406 98 707 0 500 -97 872 -310 1195 -94 141 -263 308 -413 408 -423 280 -1021
404 -1790 370z m632 -608 c640 -75 1025 -346 1162 -818 44 -153 58 -252 63
-467 6 -229 -8 -361 -53 -517 -134 -464 -494 -744 -1019 -793 -63 -6 -405 -10
-797 -10 l-688 0 0 1249 0 1249 74 17 c182 40 415 77 626 98 105 11 517 6 632
-8z"/>
<path fill="#373737" d="M17835 10328 c-176 -32 -321 -60 -322 -61 -1 -2 343 -1302 765 -2890
l767 -2887 370 2 370 3 570 2407 c313 1324 572 2409 575 2412 3 2 266 -1082
585 -2410 l579 -2414 362 0 c355 0 363 0 369 20 15 48 1455 5724 1455 5736 0
8 -10 16 -22 19 -96 22 -614 125 -631 125 -21 0 -45 -104 -592 -2531 -418
-1857 -572 -2523 -577 -2502 -4 15 -271 1151 -593 2523 -323 1372 -587 2496
-589 2497 -2 2 -696 -98 -703 -101 0 -1 -258 -1112 -573 -2471 -314 -1358
-573 -2471 -574 -2472 -1 -1 -274 1136 -606 2527 l-605 2530 -30 -1 c-16 0
-174 -28 -350 -61z"/>
<path d="M33470 7410 l0 -2920 325 0 325 0 0 1395 0 1395 1360 0 1360 0 0
-1395 0 -1395 325 0 325 0 0 2920 0 2920 -325 0 -325 0 0 -1230 0 -1230 -1360
0 -1360 0 0 1230 0 1230 -325 0 -325 0 0 -2920z"/>
<path fill="#373737" d="M26020 8879 c-47 -5 -133 -18 -193 -29 -360 -69 -686 -265 -893 -539
-205 -273 -351 -747 -395 -1285 -15 -196 -7 -785 15 -966 59 -499 185 -845
411 -1135 116 -148 238 -249 402 -332 247 -126 478 -182 846 -205 390 -24 799
24 1131 133 123 41 438 189 489 231 l28 23 -115 238 c-63 130 -117 237 -119
237 -3 0 -60 -29 -128 -64 -225 -118 -470 -198 -734 -243 -170 -28 -560 -26
-711 5 -246 49 -420 134 -561 273 -190 187 -292 475 -319 902 -4 61 -3 107 2
107 59 2 2867 229 2870 233 9 8 -16 580 -31 720 -76 718 -268 1147 -634 1423
-178 133 -367 209 -636 255 -95 17 -174 22 -380 24 -143 2 -298 -1 -345 -6z
m552 -544 c295 -51 526 -218 657 -474 107 -209 163 -472 186 -863 6 -95 4
-108 -10 -108 -24 0 -2131 -158 -2197 -165 l-58 -6 0 78 c0 242 32 530 80 718
77 305 216 521 426 661 236 157 583 218 916 159z"/>
<path d="M7315 6549 c-594 -57 -1117 -415 -1380 -944 -78 -159 -117 -269 -152
-434 -24 -114 -27 -147 -27 -336 0 -179 3 -227 22 -323 93 -463 351 -853 737
-1114 92 -62 280 -160 345 -179 30 -9 42 -21 62 -63 14 -28 44 -73 67 -101
l42 -50 -38 -7 c-21 -4 -88 -17 -149 -28 -632 -115 -1201 -501 -1562 -1059
l-59 -90 -50 72 c-238 338 -587 569 -985 651 -42 9 -88 16 -102 16 -37 0 -39
14 -6 55 16 20 32 45 35 55 3 10 30 26 68 40 152 54 297 151 424 283 156 163
252 344 299 567 21 104 24 314 5 420 -99 550 -575 950 -1131 950 -556 0 -1032
-400 -1131 -950 -19 -106 -16 -316 5 -420 47 -220 142 -403 295 -563 118 -123
226 -201 366 -262 68 -29 78 -37 118 -98 25 -36 42 -69 39 -72 -3 -3 -19 -5
-36 -5 -96 -1 -314 -68 -471 -145 -195 -95 -365 -224 -496 -377 l-62 -72 54
-49 c1640 -1475 3832 -2146 6014 -1841 1378 193 2671 768 3735 1662 85 71 189
162 230 201 l75 71 -115 112 c-63 62 -156 141 -207 176 -177 120 -394 211
-588 247 -49 9 -101 19 -114 21 l-24 5 25 27 c14 15 33 41 42 59 11 21 28 35
53 43 65 21 212 98 280 146 253 181 430 465 473 763 8 53 11 137 7 230 -7 183
-34 288 -117 456 -137 277 -366 477 -658 575 -337 113 -700 65 -1002 -131 -84
-55 -264 -235 -319 -319 -215 -332 -250 -743 -92 -1100 107 -244 303 -447 545
-566 49 -24 95 -44 103 -44 7 0 21 -17 32 -39 11 -21 32 -52 46 -69 l26 -31
-23 -5 c-13 -2 -63 -12 -113 -21 -192 -35 -400 -122 -585 -246 -133 -88 -324
-281 -417 -421 l-71 -107 -57 96 c-167 280 -449 573 -728 757 -255 167 -565
292 -861 346 -61 11 -128 24 -150 28 l-38 7 40 49 c23 27 51 68 63 92 20 36
30 44 78 59 74 23 239 101 326 155 533 327 850 925 822 1545 -21 446 -194 835
-512 1150 -291 288 -661 459 -1070 494 -135 12 -171 12 -300 0z"/>
</g>
</svg>
