<svg width="500" height="500" viewBox="0 0 500 500" fill="none" xmlns="http://www.w3.org/2000/svg">
<circle cx="250" cy="250" r="250" fill="white"/>
<path d="M112.828 357.25V380H108.141L99 364.75V380H94.3125V357.25H99L108.156 372.516V357.25H112.828ZM115.906 371.719V371.391C115.906 370.151 116.083 369.01 116.438 367.969C116.792 366.917 117.307 366.005 117.984 365.234C118.661 364.464 119.495 363.865 120.484 363.438C121.474 363 122.609 362.781 123.891 362.781C125.172 362.781 126.312 363 127.312 363.438C128.312 363.865 129.151 364.464 129.828 365.234C130.516 366.005 131.036 366.917 131.391 367.969C131.745 369.01 131.922 370.151 131.922 371.391V371.719C131.922 372.948 131.745 374.089 131.391 375.141C131.036 376.182 130.516 377.094 129.828 377.875C129.151 378.646 128.318 379.245 127.328 379.672C126.339 380.099 125.203 380.312 123.922 380.312C122.641 380.312 121.5 380.099 120.5 379.672C119.51 379.245 118.672 378.646 117.984 377.875C117.307 377.094 116.792 376.182 116.438 375.141C116.083 374.089 115.906 372.948 115.906 371.719ZM120.406 371.391V371.719C120.406 372.427 120.469 373.089 120.594 373.703C120.719 374.318 120.917 374.859 121.188 375.328C121.469 375.786 121.833 376.146 122.281 376.406C122.729 376.667 123.276 376.797 123.922 376.797C124.547 376.797 125.083 376.667 125.531 376.406C125.979 376.146 126.339 375.786 126.609 375.328C126.88 374.859 127.078 374.318 127.203 373.703C127.339 373.089 127.406 372.427 127.406 371.719V371.391C127.406 370.703 127.339 370.057 127.203 369.453C127.078 368.839 126.875 368.297 126.594 367.828C126.323 367.349 125.964 366.974 125.516 366.703C125.068 366.432 124.526 366.297 123.891 366.297C123.255 366.297 122.714 366.432 122.266 366.703C121.828 366.974 121.469 367.349 121.188 367.828C120.917 368.297 120.719 368.839 120.594 369.453C120.469 370.057 120.406 370.703 120.406 371.391ZM151.797 375.328C151.797 375.005 151.703 374.714 151.516 374.453C151.328 374.193 150.979 373.953 150.469 373.734C149.969 373.505 149.245 373.297 148.297 373.109C147.443 372.922 146.646 372.688 145.906 372.406C145.177 372.115 144.542 371.766 144 371.359C143.469 370.953 143.052 370.474 142.75 369.922C142.448 369.359 142.297 368.719 142.297 368C142.297 367.292 142.448 366.625 142.75 366C143.062 365.375 143.505 364.823 144.078 364.344C144.661 363.854 145.37 363.474 146.203 363.203C147.047 362.922 147.995 362.781 149.047 362.781C150.516 362.781 151.776 363.016 152.828 363.484C153.891 363.953 154.703 364.599 155.266 365.422C155.839 366.234 156.125 367.161 156.125 368.203H151.625C151.625 367.766 151.531 367.375 151.344 367.031C151.167 366.677 150.885 366.401 150.5 366.203C150.125 365.995 149.635 365.891 149.031 365.891C148.531 365.891 148.099 365.979 147.734 366.156C147.37 366.323 147.089 366.552 146.891 366.844C146.703 367.125 146.609 367.438 146.609 367.781C146.609 368.042 146.661 368.276 146.766 368.484C146.88 368.682 147.062 368.865 147.312 369.031C147.562 369.198 147.885 369.354 148.281 369.5C148.688 369.635 149.188 369.76 149.781 369.875C151 370.125 152.089 370.453 153.047 370.859C154.005 371.255 154.766 371.797 155.328 372.484C155.891 373.161 156.172 374.052 156.172 375.156C156.172 375.906 156.005 376.594 155.672 377.219C155.339 377.844 154.859 378.391 154.234 378.859C153.609 379.318 152.859 379.677 151.984 379.938C151.12 380.188 150.146 380.312 149.062 380.312C147.49 380.312 146.156 380.031 145.062 379.469C143.979 378.906 143.156 378.193 142.594 377.328C142.042 376.453 141.766 375.557 141.766 374.641H146.031C146.052 375.255 146.208 375.75 146.5 376.125C146.802 376.5 147.182 376.771 147.641 376.938C148.109 377.104 148.615 377.188 149.156 377.188C149.74 377.188 150.224 377.109 150.609 376.953C150.995 376.786 151.286 376.568 151.484 376.297C151.693 376.016 151.797 375.693 151.797 375.328ZM166.875 380.312C165.562 380.312 164.385 380.104 163.344 379.688C162.302 379.26 161.417 378.672 160.688 377.922C159.969 377.172 159.417 376.302 159.031 375.312C158.646 374.312 158.453 373.25 158.453 372.125V371.5C158.453 370.219 158.635 369.047 159 367.984C159.365 366.922 159.885 366 160.562 365.219C161.25 364.438 162.083 363.839 163.062 363.422C164.042 362.995 165.146 362.781 166.375 362.781C167.573 362.781 168.635 362.979 169.562 363.375C170.49 363.771 171.266 364.333 171.891 365.062C172.526 365.792 173.005 366.667 173.328 367.688C173.651 368.698 173.812 369.823 173.812 371.062V372.938H160.375V369.938H169.391V369.594C169.391 368.969 169.276 368.411 169.047 367.922C168.828 367.422 168.495 367.026 168.047 366.734C167.599 366.443 167.026 366.297 166.328 366.297C165.734 366.297 165.224 366.427 164.797 366.688C164.37 366.948 164.021 367.312 163.75 367.781C163.49 368.25 163.292 368.802 163.156 369.438C163.031 370.062 162.969 370.75 162.969 371.5V372.125C162.969 372.802 163.062 373.427 163.25 374C163.448 374.573 163.724 375.068 164.078 375.484C164.443 375.901 164.88 376.224 165.391 376.453C165.911 376.682 166.5 376.797 167.156 376.797C167.969 376.797 168.724 376.641 169.422 376.328C170.13 376.005 170.74 375.521 171.25 374.875L173.438 377.25C173.083 377.76 172.599 378.25 171.984 378.719C171.38 379.188 170.651 379.573 169.797 379.875C168.943 380.167 167.969 380.312 166.875 380.312ZM188.734 356V380H184.234V356H188.734ZM188.094 370.953H186.859C186.87 369.776 187.026 368.693 187.328 367.703C187.63 366.703 188.062 365.839 188.625 365.109C189.188 364.37 189.859 363.797 190.641 363.391C191.432 362.984 192.307 362.781 193.266 362.781C194.099 362.781 194.854 362.901 195.531 363.141C196.219 363.37 196.807 363.745 197.297 364.266C197.797 364.776 198.182 365.448 198.453 366.281C198.724 367.115 198.859 368.125 198.859 369.312V380H194.328V369.281C194.328 368.531 194.219 367.943 194 367.516C193.792 367.078 193.484 366.771 193.078 366.594C192.682 366.406 192.193 366.312 191.609 366.312C190.964 366.312 190.411 366.432 189.953 366.672C189.505 366.911 189.146 367.245 188.875 367.672C188.604 368.089 188.406 368.578 188.281 369.141C188.156 369.703 188.094 370.307 188.094 370.953ZM211.406 376.188V368.656C211.406 368.115 211.318 367.651 211.141 367.266C210.964 366.87 210.688 366.562 210.312 366.344C209.948 366.125 209.474 366.016 208.891 366.016C208.391 366.016 207.958 366.104 207.594 366.281C207.229 366.448 206.948 366.693 206.75 367.016C206.552 367.328 206.453 367.698 206.453 368.125H201.953C201.953 367.406 202.12 366.724 202.453 366.078C202.786 365.432 203.271 364.865 203.906 364.375C204.542 363.875 205.297 363.484 206.172 363.203C207.057 362.922 208.047 362.781 209.141 362.781C210.453 362.781 211.62 363 212.641 363.438C213.661 363.875 214.464 364.531 215.047 365.406C215.641 366.281 215.938 367.375 215.938 368.688V375.922C215.938 376.849 215.995 377.609 216.109 378.203C216.224 378.786 216.391 379.297 216.609 379.734V380H212.062C211.844 379.542 211.677 378.969 211.562 378.281C211.458 377.583 211.406 376.885 211.406 376.188ZM212 369.703L212.031 372.25H209.516C208.922 372.25 208.406 372.318 207.969 372.453C207.531 372.589 207.172 372.781 206.891 373.031C206.609 373.271 206.401 373.552 206.266 373.875C206.141 374.198 206.078 374.552 206.078 374.938C206.078 375.323 206.167 375.672 206.344 375.984C206.521 376.286 206.776 376.526 207.109 376.703C207.443 376.87 207.833 376.953 208.281 376.953C208.958 376.953 209.547 376.818 210.047 376.547C210.547 376.276 210.932 375.943 211.203 375.547C211.484 375.151 211.63 374.776 211.641 374.422L212.828 376.328C212.661 376.755 212.432 377.198 212.141 377.656C211.859 378.115 211.5 378.547 211.062 378.953C210.625 379.349 210.099 379.677 209.484 379.938C208.87 380.188 208.141 380.312 207.297 380.312C206.224 380.312 205.25 380.099 204.375 379.672C203.51 379.234 202.823 378.635 202.312 377.875C201.812 377.104 201.562 376.229 201.562 375.25C201.562 374.365 201.729 373.578 202.062 372.891C202.396 372.203 202.885 371.625 203.531 371.156C204.188 370.677 205.005 370.318 205.984 370.078C206.964 369.828 208.099 369.703 209.391 369.703H212ZM223.812 366.703V380H219.312V363.094H223.531L223.812 366.703ZM223.156 370.953H221.938C221.938 369.703 222.099 368.578 222.422 367.578C222.745 366.568 223.198 365.708 223.781 365C224.365 364.281 225.057 363.734 225.859 363.359C226.672 362.974 227.578 362.781 228.578 362.781C229.37 362.781 230.094 362.896 230.75 363.125C231.406 363.354 231.969 363.719 232.438 364.219C232.917 364.719 233.281 365.38 233.531 366.203C233.792 367.026 233.922 368.031 233.922 369.219V380H229.391V369.203C229.391 368.453 229.286 367.87 229.078 367.453C228.87 367.036 228.562 366.745 228.156 366.578C227.76 366.401 227.271 366.312 226.688 366.312C226.083 366.312 225.557 366.432 225.109 366.672C224.672 366.911 224.307 367.245 224.016 367.672C223.734 368.089 223.521 368.578 223.375 369.141C223.229 369.703 223.156 370.307 223.156 370.953ZM253.094 380.312C251.781 380.312 250.604 380.104 249.562 379.688C248.521 379.26 247.635 378.672 246.906 377.922C246.188 377.172 245.635 376.302 245.25 375.312C244.865 374.312 244.672 373.25 244.672 372.125V371.5C244.672 370.219 244.854 369.047 245.219 367.984C245.583 366.922 246.104 366 246.781 365.219C247.469 364.438 248.302 363.839 249.281 363.422C250.26 362.995 251.365 362.781 252.594 362.781C253.792 362.781 254.854 362.979 255.781 363.375C256.708 363.771 257.484 364.333 258.109 365.062C258.745 365.792 259.224 366.667 259.547 367.688C259.87 368.698 260.031 369.823 260.031 371.062V372.938H246.594V369.938H255.609V369.594C255.609 368.969 255.495 368.411 255.266 367.922C255.047 367.422 254.714 367.026 254.266 366.734C253.818 366.443 253.245 366.297 252.547 366.297C251.953 366.297 251.443 366.427 251.016 366.688C250.589 366.948 250.24 367.312 249.969 367.781C249.708 368.25 249.51 368.802 249.375 369.438C249.25 370.062 249.188 370.75 249.188 371.5V372.125C249.188 372.802 249.281 373.427 249.469 374C249.667 374.573 249.943 375.068 250.297 375.484C250.661 375.901 251.099 376.224 251.609 376.453C252.13 376.682 252.719 376.797 253.375 376.797C254.188 376.797 254.943 376.641 255.641 376.328C256.349 376.005 256.958 375.521 257.469 374.875L259.656 377.25C259.302 377.76 258.818 378.25 258.203 378.719C257.599 379.188 256.87 379.573 256.016 379.875C255.161 380.167 254.188 380.312 253.094 380.312ZM267 366.703V380H262.5V363.094H266.719L267 366.703ZM266.344 370.953H265.125C265.125 369.703 265.286 368.578 265.609 367.578C265.932 366.568 266.385 365.708 266.969 365C267.552 364.281 268.245 363.734 269.047 363.359C269.859 362.974 270.766 362.781 271.766 362.781C272.557 362.781 273.281 362.896 273.938 363.125C274.594 363.354 275.156 363.719 275.625 364.219C276.104 364.719 276.469 365.38 276.719 366.203C276.979 367.026 277.109 368.031 277.109 369.219V380H272.578V369.203C272.578 368.453 272.474 367.87 272.266 367.453C272.057 367.036 271.75 366.745 271.344 366.578C270.948 366.401 270.458 366.312 269.875 366.312C269.271 366.312 268.745 366.432 268.297 366.672C267.859 366.911 267.495 367.245 267.203 367.672C266.922 368.089 266.708 368.578 266.562 369.141C266.417 369.703 266.344 370.307 266.344 370.953ZM287.516 376.797C288.068 376.797 288.557 376.693 288.984 376.484C289.411 376.266 289.745 375.964 289.984 375.578C290.234 375.182 290.365 374.719 290.375 374.188H294.609C294.599 375.375 294.281 376.432 293.656 377.359C293.031 378.276 292.193 379 291.141 379.531C290.089 380.052 288.911 380.312 287.609 380.312C286.297 380.312 285.151 380.094 284.172 379.656C283.203 379.219 282.396 378.615 281.75 377.844C281.104 377.062 280.62 376.156 280.297 375.125C279.974 374.083 279.812 372.969 279.812 371.781V371.328C279.812 370.13 279.974 369.016 280.297 367.984C280.62 366.943 281.104 366.036 281.75 365.266C282.396 364.484 283.203 363.875 284.172 363.438C285.141 363 286.276 362.781 287.578 362.781C288.964 362.781 290.177 363.047 291.219 363.578C292.271 364.109 293.094 364.87 293.688 365.859C294.292 366.839 294.599 368 294.609 369.344H290.375C290.365 368.781 290.245 368.271 290.016 367.812C289.797 367.354 289.474 366.99 289.047 366.719C288.63 366.438 288.115 366.297 287.5 366.297C286.844 366.297 286.307 366.438 285.891 366.719C285.474 366.99 285.151 367.365 284.922 367.844C284.693 368.312 284.531 368.849 284.438 369.453C284.354 370.047 284.312 370.672 284.312 371.328V371.781C284.312 372.438 284.354 373.068 284.438 373.672C284.521 374.276 284.677 374.812 284.906 375.281C285.146 375.75 285.474 376.12 285.891 376.391C286.307 376.661 286.849 376.797 287.516 376.797ZM296.5 371.719V371.391C296.5 370.151 296.677 369.01 297.031 367.969C297.385 366.917 297.901 366.005 298.578 365.234C299.255 364.464 300.089 363.865 301.078 363.438C302.068 363 303.203 362.781 304.484 362.781C305.766 362.781 306.906 363 307.906 363.438C308.906 363.865 309.745 364.464 310.422 365.234C311.109 366.005 311.63 366.917 311.984 367.969C312.339 369.01 312.516 370.151 312.516 371.391V371.719C312.516 372.948 312.339 374.089 311.984 375.141C311.63 376.182 311.109 377.094 310.422 377.875C309.745 378.646 308.911 379.245 307.922 379.672C306.932 380.099 305.797 380.312 304.516 380.312C303.234 380.312 302.094 380.099 301.094 379.672C300.104 379.245 299.266 378.646 298.578 377.875C297.901 377.094 297.385 376.182 297.031 375.141C296.677 374.089 296.5 372.948 296.5 371.719ZM301 371.391V371.719C301 372.427 301.062 373.089 301.188 373.703C301.312 374.318 301.51 374.859 301.781 375.328C302.062 375.786 302.427 376.146 302.875 376.406C303.323 376.667 303.87 376.797 304.516 376.797C305.141 376.797 305.677 376.667 306.125 376.406C306.573 376.146 306.932 375.786 307.203 375.328C307.474 374.859 307.672 374.318 307.797 373.703C307.932 373.089 308 372.427 308 371.719V371.391C308 370.703 307.932 370.057 307.797 369.453C307.672 368.839 307.469 368.297 307.188 367.828C306.917 367.349 306.557 366.974 306.109 366.703C305.661 366.432 305.12 366.297 304.484 366.297C303.849 366.297 303.307 366.432 302.859 366.703C302.422 366.974 302.062 367.349 301.781 367.828C301.51 368.297 301.312 368.839 301.188 369.453C301.062 370.057 301 370.703 301 371.391ZM319.688 366.703V380H315.188V363.094H319.406L319.688 366.703ZM319.031 370.953H317.812C317.812 369.703 317.974 368.578 318.297 367.578C318.62 366.568 319.073 365.708 319.656 365C320.24 364.281 320.932 363.734 321.734 363.359C322.547 362.974 323.453 362.781 324.453 362.781C325.245 362.781 325.969 362.896 326.625 363.125C327.281 363.354 327.844 363.719 328.312 364.219C328.792 364.719 329.156 365.38 329.406 366.203C329.667 367.026 329.797 368.031 329.797 369.219V380H325.266V369.203C325.266 368.453 325.161 367.87 324.953 367.453C324.745 367.036 324.438 366.745 324.031 366.578C323.635 366.401 323.146 366.312 322.562 366.312C321.958 366.312 321.432 366.432 320.984 366.672C320.547 366.911 320.182 367.245 319.891 367.672C319.609 368.089 319.396 368.578 319.25 369.141C319.104 369.703 319.031 370.307 319.031 370.953ZM341.5 363.094V366.281H331.656V363.094H341.5ZM334.094 358.922H338.594V374.906C338.594 375.396 338.656 375.771 338.781 376.031C338.917 376.292 339.115 376.474 339.375 376.578C339.635 376.672 339.964 376.719 340.359 376.719C340.641 376.719 340.891 376.708 341.109 376.688C341.339 376.656 341.531 376.625 341.688 376.594L341.703 379.906C341.318 380.031 340.901 380.13 340.453 380.203C340.005 380.276 339.51 380.312 338.969 380.312C337.979 380.312 337.115 380.151 336.375 379.828C335.646 379.495 335.083 378.964 334.688 378.234C334.292 377.505 334.094 376.547 334.094 375.359V358.922ZM348.562 366.781V380H344.062V363.094H348.297L348.562 366.781ZM353.656 362.984L353.578 367.156C353.359 367.125 353.094 367.099 352.781 367.078C352.479 367.047 352.203 367.031 351.953 367.031C351.318 367.031 350.766 367.115 350.297 367.281C349.839 367.438 349.453 367.672 349.141 367.984C348.839 368.297 348.609 368.677 348.453 369.125C348.307 369.573 348.224 370.083 348.203 370.656L347.297 370.375C347.297 369.281 347.406 368.276 347.625 367.359C347.844 366.432 348.161 365.625 348.578 364.938C349.005 364.25 349.526 363.719 350.141 363.344C350.755 362.969 351.458 362.781 352.25 362.781C352.5 362.781 352.755 362.802 353.016 362.844C353.276 362.875 353.49 362.922 353.656 362.984ZM364.375 376.188V368.656C364.375 368.115 364.286 367.651 364.109 367.266C363.932 366.87 363.656 366.562 363.281 366.344C362.917 366.125 362.443 366.016 361.859 366.016C361.359 366.016 360.927 366.104 360.562 366.281C360.198 366.448 359.917 366.693 359.719 367.016C359.521 367.328 359.422 367.698 359.422 368.125H354.922C354.922 367.406 355.089 366.724 355.422 366.078C355.755 365.432 356.24 364.865 356.875 364.375C357.51 363.875 358.266 363.484 359.141 363.203C360.026 362.922 361.016 362.781 362.109 362.781C363.422 362.781 364.589 363 365.609 363.438C366.63 363.875 367.432 364.531 368.016 365.406C368.609 366.281 368.906 367.375 368.906 368.688V375.922C368.906 376.849 368.964 377.609 369.078 378.203C369.193 378.786 369.359 379.297 369.578 379.734V380H365.031C364.812 379.542 364.646 378.969 364.531 378.281C364.427 377.583 364.375 376.885 364.375 376.188ZM364.969 369.703L365 372.25H362.484C361.891 372.25 361.375 372.318 360.938 372.453C360.5 372.589 360.141 372.781 359.859 373.031C359.578 373.271 359.37 373.552 359.234 373.875C359.109 374.198 359.047 374.552 359.047 374.938C359.047 375.323 359.135 375.672 359.312 375.984C359.49 376.286 359.745 376.526 360.078 376.703C360.411 376.87 360.802 376.953 361.25 376.953C361.927 376.953 362.516 376.818 363.016 376.547C363.516 376.276 363.901 375.943 364.172 375.547C364.453 375.151 364.599 374.776 364.609 374.422L365.797 376.328C365.63 376.755 365.401 377.198 365.109 377.656C364.828 378.115 364.469 378.547 364.031 378.953C363.594 379.349 363.068 379.677 362.453 379.938C361.839 380.188 361.109 380.312 360.266 380.312C359.193 380.312 358.219 380.099 357.344 379.672C356.479 379.234 355.792 378.635 355.281 377.875C354.781 377.104 354.531 376.229 354.531 375.25C354.531 374.365 354.698 373.578 355.031 372.891C355.365 372.203 355.854 371.625 356.5 371.156C357.156 370.677 357.974 370.318 358.953 370.078C359.932 369.828 361.068 369.703 362.359 369.703H364.969ZM382.359 376.312V356H386.891V380H382.812L382.359 376.312ZM371.672 371.75V371.422C371.672 370.13 371.818 368.958 372.109 367.906C372.401 366.844 372.828 365.932 373.391 365.172C373.953 364.411 374.646 363.823 375.469 363.406C376.292 362.99 377.229 362.781 378.281 362.781C379.271 362.781 380.135 362.99 380.875 363.406C381.625 363.823 382.26 364.417 382.781 365.188C383.312 365.948 383.74 366.849 384.062 367.891C384.385 368.922 384.62 370.052 384.766 371.281V372C384.62 373.177 384.385 374.271 384.062 375.281C383.74 376.292 383.312 377.177 382.781 377.938C382.26 378.688 381.625 379.271 380.875 379.688C380.125 380.104 379.25 380.312 378.25 380.312C377.198 380.312 376.26 380.099 375.438 379.672C374.625 379.245 373.938 378.646 373.375 377.875C372.823 377.104 372.401 376.198 372.109 375.156C371.818 374.115 371.672 372.979 371.672 371.75ZM376.172 371.422V371.75C376.172 372.448 376.224 373.099 376.328 373.703C376.443 374.307 376.625 374.844 376.875 375.312C377.135 375.771 377.469 376.13 377.875 376.391C378.292 376.641 378.797 376.766 379.391 376.766C380.161 376.766 380.797 376.594 381.297 376.25C381.797 375.896 382.177 375.411 382.438 374.797C382.708 374.182 382.865 373.474 382.906 372.672V370.625C382.875 369.969 382.781 369.38 382.625 368.859C382.479 368.328 382.26 367.875 381.969 367.5C381.688 367.125 381.333 366.833 380.906 366.625C380.49 366.417 379.995 366.312 379.422 366.312C378.839 366.312 378.339 366.448 377.922 366.719C377.505 366.979 377.167 367.339 376.906 367.797C376.656 368.255 376.469 368.797 376.344 369.422C376.229 370.036 376.172 370.703 376.172 371.422ZM389.688 371.719V371.391C389.688 370.151 389.865 369.01 390.219 367.969C390.573 366.917 391.089 366.005 391.766 365.234C392.443 364.464 393.276 363.865 394.266 363.438C395.255 363 396.391 362.781 397.672 362.781C398.953 362.781 400.094 363 401.094 363.438C402.094 363.865 402.932 364.464 403.609 365.234C404.297 366.005 404.818 366.917 405.172 367.969C405.526 369.01 405.703 370.151 405.703 371.391V371.719C405.703 372.948 405.526 374.089 405.172 375.141C404.818 376.182 404.297 377.094 403.609 377.875C402.932 378.646 402.099 379.245 401.109 379.672C400.12 380.099 398.984 380.312 397.703 380.312C396.422 380.312 395.281 380.099 394.281 379.672C393.292 379.245 392.453 378.646 391.766 377.875C391.089 377.094 390.573 376.182 390.219 375.141C389.865 374.089 389.688 372.948 389.688 371.719ZM394.188 371.391V371.719C394.188 372.427 394.25 373.089 394.375 373.703C394.5 374.318 394.698 374.859 394.969 375.328C395.25 375.786 395.615 376.146 396.062 376.406C396.51 376.667 397.057 376.797 397.703 376.797C398.328 376.797 398.865 376.667 399.312 376.406C399.76 376.146 400.12 375.786 400.391 375.328C400.661 374.859 400.859 374.318 400.984 373.703C401.12 373.089 401.188 372.427 401.188 371.719V371.391C401.188 370.703 401.12 370.057 400.984 369.453C400.859 368.839 400.656 368.297 400.375 367.828C400.104 367.349 399.745 366.974 399.297 366.703C398.849 366.432 398.307 366.297 397.672 366.297C397.036 366.297 396.495 366.432 396.047 366.703C395.609 366.974 395.25 367.349 394.969 367.828C394.698 368.297 394.5 368.839 394.375 369.453C394.25 370.057 394.188 370.703 394.188 371.391ZM179.734 414.781V428H175.234V411.094H179.469L179.734 414.781ZM184.828 410.984L184.75 415.156C184.531 415.125 184.266 415.099 183.953 415.078C183.651 415.047 183.375 415.031 183.125 415.031C182.49 415.031 181.938 415.115 181.469 415.281C181.01 415.438 180.625 415.672 180.312 415.984C180.01 416.297 179.781 416.677 179.625 417.125C179.479 417.573 179.396 418.083 179.375 418.656L178.469 418.375C178.469 417.281 178.578 416.276 178.797 415.359C179.016 414.432 179.333 413.625 179.75 412.938C180.177 412.25 180.698 411.719 181.312 411.344C181.927 410.969 182.63 410.781 183.422 410.781C183.672 410.781 183.927 410.802 184.188 410.844C184.448 410.875 184.661 410.922 184.828 410.984ZM194.422 428.312C193.109 428.312 191.932 428.104 190.891 427.688C189.849 427.26 188.964 426.672 188.234 425.922C187.516 425.172 186.964 424.302 186.578 423.312C186.193 422.312 186 421.25 186 420.125V419.5C186 418.219 186.182 417.047 186.547 415.984C186.911 414.922 187.432 414 188.109 413.219C188.797 412.438 189.63 411.839 190.609 411.422C191.589 410.995 192.693 410.781 193.922 410.781C195.12 410.781 196.182 410.979 197.109 411.375C198.036 411.771 198.812 412.333 199.438 413.062C200.073 413.792 200.552 414.667 200.875 415.688C201.198 416.698 201.359 417.823 201.359 419.062V420.938H187.922V417.938H196.938V417.594C196.938 416.969 196.823 416.411 196.594 415.922C196.375 415.422 196.042 415.026 195.594 414.734C195.146 414.443 194.573 414.297 193.875 414.297C193.281 414.297 192.771 414.427 192.344 414.688C191.917 414.948 191.568 415.312 191.297 415.781C191.036 416.25 190.839 416.802 190.703 417.438C190.578 418.062 190.516 418.75 190.516 419.5V420.125C190.516 420.802 190.609 421.427 190.797 422C190.995 422.573 191.271 423.068 191.625 423.484C191.99 423.901 192.427 424.224 192.938 424.453C193.458 424.682 194.047 424.797 194.703 424.797C195.516 424.797 196.271 424.641 196.969 424.328C197.677 424.005 198.286 423.521 198.797 422.875L200.984 425.25C200.63 425.76 200.146 426.25 199.531 426.719C198.927 427.188 198.198 427.573 197.344 427.875C196.49 428.167 195.516 428.312 194.422 428.312ZM213.062 423.328C213.062 423.005 212.969 422.714 212.781 422.453C212.594 422.193 212.245 421.953 211.734 421.734C211.234 421.505 210.51 421.297 209.562 421.109C208.708 420.922 207.911 420.688 207.172 420.406C206.443 420.115 205.807 419.766 205.266 419.359C204.734 418.953 204.318 418.474 204.016 417.922C203.714 417.359 203.562 416.719 203.562 416C203.562 415.292 203.714 414.625 204.016 414C204.328 413.375 204.771 412.823 205.344 412.344C205.927 411.854 206.635 411.474 207.469 411.203C208.312 410.922 209.26 410.781 210.312 410.781C211.781 410.781 213.042 411.016 214.094 411.484C215.156 411.953 215.969 412.599 216.531 413.422C217.104 414.234 217.391 415.161 217.391 416.203H212.891C212.891 415.766 212.797 415.375 212.609 415.031C212.432 414.677 212.151 414.401 211.766 414.203C211.391 413.995 210.901 413.891 210.297 413.891C209.797 413.891 209.365 413.979 209 414.156C208.635 414.323 208.354 414.552 208.156 414.844C207.969 415.125 207.875 415.438 207.875 415.781C207.875 416.042 207.927 416.276 208.031 416.484C208.146 416.682 208.328 416.865 208.578 417.031C208.828 417.198 209.151 417.354 209.547 417.5C209.953 417.635 210.453 417.76 211.047 417.875C212.266 418.125 213.354 418.453 214.312 418.859C215.271 419.255 216.031 419.797 216.594 420.484C217.156 421.161 217.438 422.052 217.438 423.156C217.438 423.906 217.271 424.594 216.938 425.219C216.604 425.844 216.125 426.391 215.5 426.859C214.875 427.318 214.125 427.677 213.25 427.938C212.385 428.188 211.411 428.312 210.328 428.312C208.755 428.312 207.422 428.031 206.328 427.469C205.245 426.906 204.422 426.193 203.859 425.328C203.307 424.453 203.031 423.557 203.031 422.641H207.297C207.318 423.255 207.474 423.75 207.766 424.125C208.068 424.5 208.448 424.771 208.906 424.938C209.375 425.104 209.88 425.188 210.422 425.188C211.005 425.188 211.49 425.109 211.875 424.953C212.26 424.786 212.552 424.568 212.75 424.297C212.958 424.016 213.062 423.693 213.062 423.328ZM230.359 423.953V411.094H234.859V428H230.625L230.359 423.953ZM230.859 420.484L232.188 420.453C232.188 421.578 232.057 422.625 231.797 423.594C231.536 424.552 231.146 425.385 230.625 426.094C230.104 426.792 229.448 427.339 228.656 427.734C227.865 428.12 226.932 428.312 225.859 428.312C225.036 428.312 224.276 428.198 223.578 427.969C222.891 427.729 222.297 427.359 221.797 426.859C221.307 426.349 220.922 425.698 220.641 424.906C220.37 424.104 220.234 423.141 220.234 422.016V411.094H224.734V422.047C224.734 422.547 224.792 422.969 224.906 423.312C225.031 423.656 225.203 423.938 225.422 424.156C225.641 424.375 225.896 424.531 226.188 424.625C226.49 424.719 226.823 424.766 227.188 424.766C228.115 424.766 228.844 424.578 229.375 424.203C229.917 423.828 230.297 423.318 230.516 422.672C230.745 422.016 230.859 421.286 230.859 420.484ZM243.047 404V428H238.531V404H243.047ZM255.047 411.094V414.281H245.203V411.094H255.047ZM247.641 406.922H252.141V422.906C252.141 423.396 252.203 423.771 252.328 424.031C252.464 424.292 252.661 424.474 252.922 424.578C253.182 424.672 253.51 424.719 253.906 424.719C254.188 424.719 254.438 424.708 254.656 424.688C254.885 424.656 255.078 424.625 255.234 424.594L255.25 427.906C254.865 428.031 254.448 428.13 254 428.203C253.552 428.276 253.057 428.312 252.516 428.312C251.526 428.312 250.661 428.151 249.922 427.828C249.193 427.495 248.63 426.964 248.234 426.234C247.839 425.505 247.641 424.547 247.641 423.359V406.922ZM266.734 424.188V416.656C266.734 416.115 266.646 415.651 266.469 415.266C266.292 414.87 266.016 414.562 265.641 414.344C265.276 414.125 264.802 414.016 264.219 414.016C263.719 414.016 263.286 414.104 262.922 414.281C262.557 414.448 262.276 414.693 262.078 415.016C261.88 415.328 261.781 415.698 261.781 416.125H257.281C257.281 415.406 257.448 414.724 257.781 414.078C258.115 413.432 258.599 412.865 259.234 412.375C259.87 411.875 260.625 411.484 261.5 411.203C262.385 410.922 263.375 410.781 264.469 410.781C265.781 410.781 266.948 411 267.969 411.438C268.99 411.875 269.792 412.531 270.375 413.406C270.969 414.281 271.266 415.375 271.266 416.688V423.922C271.266 424.849 271.323 425.609 271.438 426.203C271.552 426.786 271.719 427.297 271.938 427.734V428H267.391C267.172 427.542 267.005 426.969 266.891 426.281C266.786 425.583 266.734 424.885 266.734 424.188ZM267.328 417.703L267.359 420.25H264.844C264.25 420.25 263.734 420.318 263.297 420.453C262.859 420.589 262.5 420.781 262.219 421.031C261.938 421.271 261.729 421.552 261.594 421.875C261.469 422.198 261.406 422.552 261.406 422.938C261.406 423.323 261.495 423.672 261.672 423.984C261.849 424.286 262.104 424.526 262.438 424.703C262.771 424.87 263.161 424.953 263.609 424.953C264.286 424.953 264.875 424.818 265.375 424.547C265.875 424.276 266.26 423.943 266.531 423.547C266.812 423.151 266.958 422.776 266.969 422.422L268.156 424.328C267.99 424.755 267.76 425.198 267.469 425.656C267.188 426.115 266.828 426.547 266.391 426.953C265.953 427.349 265.427 427.677 264.812 427.938C264.198 428.188 263.469 428.312 262.625 428.312C261.552 428.312 260.578 428.099 259.703 427.672C258.839 427.234 258.151 426.635 257.641 425.875C257.141 425.104 256.891 424.229 256.891 423.25C256.891 422.365 257.057 421.578 257.391 420.891C257.724 420.203 258.214 419.625 258.859 419.156C259.516 418.677 260.333 418.318 261.312 418.078C262.292 417.828 263.427 417.703 264.719 417.703H267.328ZM284.719 424.312V404H289.25V428H285.172L284.719 424.312ZM274.031 419.75V419.422C274.031 418.13 274.177 416.958 274.469 415.906C274.76 414.844 275.188 413.932 275.75 413.172C276.312 412.411 277.005 411.823 277.828 411.406C278.651 410.99 279.589 410.781 280.641 410.781C281.63 410.781 282.495 410.99 283.234 411.406C283.984 411.823 284.62 412.417 285.141 413.188C285.672 413.948 286.099 414.849 286.422 415.891C286.745 416.922 286.979 418.052 287.125 419.281V420C286.979 421.177 286.745 422.271 286.422 423.281C286.099 424.292 285.672 425.177 285.141 425.938C284.62 426.688 283.984 427.271 283.234 427.688C282.484 428.104 281.609 428.312 280.609 428.312C279.557 428.312 278.62 428.099 277.797 427.672C276.984 427.245 276.297 426.646 275.734 425.875C275.182 425.104 274.76 424.198 274.469 423.156C274.177 422.115 274.031 420.979 274.031 419.75ZM278.531 419.422V419.75C278.531 420.448 278.583 421.099 278.688 421.703C278.802 422.307 278.984 422.844 279.234 423.312C279.495 423.771 279.828 424.13 280.234 424.391C280.651 424.641 281.156 424.766 281.75 424.766C282.521 424.766 283.156 424.594 283.656 424.25C284.156 423.896 284.536 423.411 284.797 422.797C285.068 422.182 285.224 421.474 285.266 420.672V418.625C285.234 417.969 285.141 417.38 284.984 416.859C284.839 416.328 284.62 415.875 284.328 415.5C284.047 415.125 283.693 414.833 283.266 414.625C282.849 414.417 282.354 414.312 281.781 414.312C281.198 414.312 280.698 414.448 280.281 414.719C279.865 414.979 279.526 415.339 279.266 415.797C279.016 416.255 278.828 416.797 278.703 417.422C278.589 418.036 278.531 418.703 278.531 419.422ZM292.047 419.719V419.391C292.047 418.151 292.224 417.01 292.578 415.969C292.932 414.917 293.448 414.005 294.125 413.234C294.802 412.464 295.635 411.865 296.625 411.438C297.615 411 298.75 410.781 300.031 410.781C301.312 410.781 302.453 411 303.453 411.438C304.453 411.865 305.292 412.464 305.969 413.234C306.656 414.005 307.177 414.917 307.531 415.969C307.885 417.01 308.062 418.151 308.062 419.391V419.719C308.062 420.948 307.885 422.089 307.531 423.141C307.177 424.182 306.656 425.094 305.969 425.875C305.292 426.646 304.458 427.245 303.469 427.672C302.479 428.099 301.344 428.312 300.062 428.312C298.781 428.312 297.641 428.099 296.641 427.672C295.651 427.245 294.812 426.646 294.125 425.875C293.448 425.094 292.932 424.182 292.578 423.141C292.224 422.089 292.047 420.948 292.047 419.719ZM296.547 419.391V419.719C296.547 420.427 296.609 421.089 296.734 421.703C296.859 422.318 297.057 422.859 297.328 423.328C297.609 423.786 297.974 424.146 298.422 424.406C298.87 424.667 299.417 424.797 300.062 424.797C300.688 424.797 301.224 424.667 301.672 424.406C302.12 424.146 302.479 423.786 302.75 423.328C303.021 422.859 303.219 422.318 303.344 421.703C303.479 421.089 303.547 420.427 303.547 419.719V419.391C303.547 418.703 303.479 418.057 303.344 417.453C303.219 416.839 303.016 416.297 302.734 415.828C302.464 415.349 302.104 414.974 301.656 414.703C301.208 414.432 300.667 414.297 300.031 414.297C299.396 414.297 298.854 414.432 298.406 414.703C297.969 414.974 297.609 415.349 297.328 415.828C297.057 416.297 296.859 416.839 296.734 417.453C296.609 418.057 296.547 418.703 296.547 419.391ZM319.969 423.328C319.969 423.005 319.875 422.714 319.688 422.453C319.5 422.193 319.151 421.953 318.641 421.734C318.141 421.505 317.417 421.297 316.469 421.109C315.615 420.922 314.818 420.688 314.078 420.406C313.349 420.115 312.714 419.766 312.172 419.359C311.641 418.953 311.224 418.474 310.922 417.922C310.62 417.359 310.469 416.719 310.469 416C310.469 415.292 310.62 414.625 310.922 414C311.234 413.375 311.677 412.823 312.25 412.344C312.833 411.854 313.542 411.474 314.375 411.203C315.219 410.922 316.167 410.781 317.219 410.781C318.688 410.781 319.948 411.016 321 411.484C322.062 411.953 322.875 412.599 323.438 413.422C324.01 414.234 324.297 415.161 324.297 416.203H319.797C319.797 415.766 319.703 415.375 319.516 415.031C319.339 414.677 319.057 414.401 318.672 414.203C318.297 413.995 317.807 413.891 317.203 413.891C316.703 413.891 316.271 413.979 315.906 414.156C315.542 414.323 315.26 414.552 315.062 414.844C314.875 415.125 314.781 415.438 314.781 415.781C314.781 416.042 314.833 416.276 314.938 416.484C315.052 416.682 315.234 416.865 315.484 417.031C315.734 417.198 316.057 417.354 316.453 417.5C316.859 417.635 317.359 417.76 317.953 417.875C319.172 418.125 320.26 418.453 321.219 418.859C322.177 419.255 322.938 419.797 323.5 420.484C324.062 421.161 324.344 422.052 324.344 423.156C324.344 423.906 324.177 424.594 323.844 425.219C323.51 425.844 323.031 426.391 322.406 426.859C321.781 427.318 321.031 427.677 320.156 427.938C319.292 428.188 318.318 428.312 317.234 428.312C315.661 428.312 314.328 428.031 313.234 427.469C312.151 426.906 311.328 426.193 310.766 425.328C310.214 424.453 309.938 423.557 309.938 422.641H314.203C314.224 423.255 314.38 423.75 314.672 424.125C314.974 424.5 315.354 424.771 315.812 424.938C316.281 425.104 316.786 425.188 317.328 425.188C317.911 425.188 318.396 425.109 318.781 424.953C319.167 424.786 319.458 424.568 319.656 424.297C319.865 424.016 319.969 423.693 319.969 423.328Z" fill="black"/>
<path d="M154 185V149C154 143.696 156.107 138.609 159.858 134.858C163.609 131.107 168.696 129 174 129H211.945C215.894 129 219.754 130.169 223.04 132.36L236.96 141.64C240.246 143.831 244.106 145 248.055 145H326C331.304 145 336.391 147.107 340.142 150.858C343.893 154.609 346 159.696 346 165V185" fill="#F3F4F6"/>
<path d="M154 185V149C154 143.696 156.107 138.609 159.858 134.858C163.609 131.107 168.696 129 174 129H211.945C215.894 129 219.754 130.169 223.04 132.36L236.96 141.64C240.246 143.831 244.106 145 248.055 145H326C331.304 145 336.391 147.107 340.142 150.858C343.893 154.609 346 159.696 346 165V185" stroke="black" stroke-width="16" stroke-linecap="round" stroke-linejoin="round"/>
<path d="M361.95 202.275L353.84 285C353.84 290.298 351.738 295.38 347.994 299.13C344.251 302.88 339.173 304.991 333.875 305H166.125C160.827 304.991 155.749 302.88 152.005 299.13C148.262 295.38 146.16 290.298 146.16 285L138.05 202.275C137.874 200.073 138.156 197.859 138.877 195.772C139.599 193.684 140.745 191.769 142.243 190.146C143.742 188.523 145.56 187.228 147.583 186.343C149.606 185.457 151.791 185 154 185H346.05C348.254 185.007 350.434 185.469 352.451 186.358C354.468 187.246 356.28 188.542 357.773 190.164C359.266 191.786 360.408 193.699 361.127 195.783C361.845 197.867 362.126 200.078 361.95 202.275Z" fill="#F3F4F6" stroke="black" stroke-width="16" stroke-linecap="round" stroke-linejoin="round"/>
</svg>
