<svg width="15" height="14" viewBox="0 0 15 14" fill="none" xmlns="http://www.w3.org/2000/svg">
<g clip-path="url(#clip0_2695_292489)">
<path d="M7.46025 0.605469C9.19575 0.605469 10.8602 1.29029 12.0874 2.50927C13.3146 3.72826 14.004 5.38156 14.004 7.10547C14.004 8.82938 13.3146 10.4827 12.0874 11.7017C10.8602 12.9206 9.19575 13.6055 7.46025 13.6055C5.72474 13.6055 4.06031 12.9206 2.83312 11.7017C1.60593 10.4827 0.916504 8.82938 0.916504 7.10547C0.916504 5.38156 1.60593 3.72826 2.83312 2.50927C4.06031 1.29029 5.72474 0.605469 7.46025 0.605469V0.605469ZM4.59736 6.69922C4.48889 6.69922 4.38486 6.74202 4.30816 6.81821C4.23146 6.89439 4.18837 6.99772 4.18837 7.10547C4.18837 7.21321 4.23146 7.31654 4.30816 7.39273C4.38486 7.46892 4.48889 7.51172 4.59736 7.51172H9.33585L7.57967 9.25534C7.54164 9.29311 7.51148 9.33796 7.4909 9.38731C7.47032 9.43666 7.45973 9.48955 7.45973 9.54297C7.45973 9.59639 7.47032 9.64928 7.4909 9.69863C7.51148 9.74798 7.54164 9.79282 7.57967 9.83059C7.61769 9.86837 7.66284 9.89833 7.71252 9.91877C7.7622 9.93921 7.81545 9.94973 7.86923 9.94973C7.92301 9.94973 7.97626 9.93921 8.02594 9.91877C8.07562 9.89833 8.12076 9.86837 8.15879 9.83059L10.6127 7.39309C10.6508 7.35536 10.681 7.31053 10.7016 7.26117C10.7222 7.21182 10.7328 7.1589 10.7328 7.10547C10.7328 7.05203 10.7222 6.99912 10.7016 6.94977C10.681 6.90041 10.6508 6.85558 10.6127 6.81784L8.15879 4.38034C8.12076 4.34257 8.07562 4.31261 8.02594 4.29217C7.97626 4.27173 7.92301 4.26121 7.86923 4.26121C7.81545 4.26121 7.7622 4.27173 7.71252 4.29217C7.66284 4.31261 7.61769 4.34257 7.57967 4.38034C7.54164 4.41812 7.51148 4.46296 7.4909 4.51231C7.47032 4.56166 7.45973 4.61455 7.45973 4.66797C7.45973 4.72139 7.47032 4.77428 7.4909 4.82363C7.51148 4.87298 7.54164 4.91782 7.57967 4.95559L9.33585 6.69922H4.59736Z" fill="#6C757D"/>
</g>
<defs>
<clipPath id="clip0_2695_292489">
<rect width="13.0875" height="13" fill="white" transform="translate(0.916504 0.605469)"/>
</clipPath>
</defs>
</svg>
